<svg xmlns="http://www.w3.org/2000/svg" xmlns:svg="http://www.w3.org/2000/svg" id="Layer_1" width="682.042" height="158.009" x="0" y="0" version="1.1" viewBox="0 0 682.042 158.009" xml:space="preserve"><metadata id="metadata41"/><path style="fill:#a00;fill-opacity:1;stroke-width:.28091064" id="path2" d="m 32.611528,135.29482 c -6.87347,-7.18442 -13.74665,-14.65604 -18.12082,-23.56469 -4.37386,-9.48332 -5.6236703,-20.40341 -3.43658,-30.74885 2.18707,-10.34543 7.1857,-20.11622 14.3717,-28.44995 -0.62476,7.18442 2.18707,14.65603 7.49822,20.11622 -3.12436,-13.79392 1.87456,-28.73742 11.8721,-39.65751 9.99755,-10.92009 23.7445,-18.10478 38.11591,-22.99004 -7.18571,6.89696 -8.12299,17.81705 -5.31115,27.01318 2.81183,9.19585 8.74803,17.24239 14.05918,25.57612 5.31115,8.33374 10.310072,16.95493 10.622592,26.43825 2.81184,-4.88525 5.9362,-9.77078 7.81076,-15.23069 1.87455,-5.46018 2.81183,-11.20756 1.24979,-16.66773 5.62368,6.32229 8.74804,12.64433 10.31007,20.69087 1.56204,8.04653 1.2498,16.38027 0.31253,24.42681 -1.24981,8.90866 -3.74912,18.10451 -9.06027,25.57613 -6.24843,8.90866 -16.246262,15.23069 -27.181082,18.67917 -19.37092,3.16129 -38.42901,0.57492 -53.11295,-11.20729 z"/><path id="path2-3" d="m 96.941038,118.05965 -1.11405,-3.74742 -7.95588,1.90665 -6.73053,-3.49955 8.37285,-3.30801 v -3.55519 l -8.37345,-3.30802 6.73053,-3.49919 7.95687,1.9063 1.11405,-3.74742 -3.78125,-0.90455 3.8815,-2.01556 -2.1692,-3.35626 -3.87407,2.01393 1.0082,-3.39406 -4.17361,-0.99923 -2.12267,7.14167 -6.7107,3.481 0.98598,-8.12702 -3.4204,-1.77795 -7.36925,4.8408 v -6.96742 l 5.82294,-5.2235 -3.05292,-2.74819 -2.76982,2.48538 v -4.02249 h -4.31655 v 4.02249 l -2.76866,-2.48538 -3.05449,2.74837 5.82294,5.22349 v 6.96688 l -7.36887,-4.8408 -3.4204,1.77795 0.98718,8.12704 -6.71148,-3.48065 -2.1231,-7.14203 -4.1732,0.99959 1.00783,3.39389 -3.8733,-2.01395 -2.16238,3.35609 3.87367,2.01556 -3.78045,0.90454 1.11408,3.74743 7.95585,-1.9063 6.73135,3.49919 -8.37428,3.30802 v 3.55518 l 8.37368,3.30803 -6.73135,3.49955 -7.95465,-1.90666 -1.11407,3.74742 3.77965,0.90455 -3.87328,2.01519 2.16257,3.35752 3.87291,-2.01249 -1.00823,3.39136 4.1736,1.00067 2.1231,-7.14311 6.71187,-3.48101 -0.98717,8.1274 3.4204,1.77831 7.36888,-4.84098 v 6.97012 l -5.82296,5.22097 3.05451,2.74803 2.76845,-2.48503 v 4.02356 h 4.31655 v -4.02356 l 2.76982,2.48503 3.05312,-2.74803 -5.82334,-5.22097 v -6.9694 l 7.36925,4.84098 3.4204,-1.7783 -0.98638,-8.1274 6.7111,3.48101 2.12308,7.14311 4.1736,-1.00067 -1.0082,-3.39101 3.87367,2.01214 2.1692,-3.35752 -3.8815,-2.01484 z m -13.65853,-10.42611 -6.77203,2.67943 -5.16238,-2.67978 5.16159,-2.678 z m -8.12347,-12.63356 -0.79691,6.58437 -5.16638,2.68753 v -5.35005 z m -16.24273,0 5.96309,3.92185 v 5.35005 l -5.16659,-2.68753 z m -8.12348,12.63356 6.77285,-2.67835 5.16195,2.678 -5.16275,2.67978 z m 8.12348,12.6341 0.7965,-6.58509 5.16659,-2.68644 v 5.34932 z m 16.24273,0 -5.96308,-3.92221 v -5.34932 l 5.16638,2.68644 z" style="fill:#fff;stroke-width:.18996906"/><text style="font-style:normal;font-variant:normal;font-weight:400;font-stretch:normal;font-size:192px;line-height:1.25;font-family:Uroob;-inkscape-font-specification:Uroob;letter-spacing:0;word-spacing:0;fill:#a00;fill-opacity:1;stroke:none" id="text83" x="122.948" y="147.728" xml:space="preserve"><tspan id="tspan81" x="122.948" y="147.728">FlakeHell</tspan></text></svg>